<svg width="168" height="38" viewBox="0 0 168 38" fill="none" xmlns="http://www.w3.org/2000/svg">
<path d="M50.2482 10.1882C51.8358 10.1882 53.2097 10.447 54.3705 10.9646C55.548 11.4821 56.4521 12.2167 57.0837 13.1684C57.7152 14.12 58.0313 15.2469 58.0313 16.5492C58.0313 17.8347 57.7152 18.9616 57.0837 19.93C56.4521 20.8816 55.548 21.6162 54.3705 22.134C53.2097 22.6346 51.8358 22.8851 50.2482 22.8851H46.6388V27.7186H42.4918V10.1882H50.2482ZM50.0182 19.5794C51.2635 19.5794 52.2111 19.3206 52.8595 18.803C53.5084 18.2688 53.8323 17.5175 53.8323 16.5492C53.8323 15.5641 53.5084 14.8128 52.8595 14.2953C52.2111 13.761 51.2635 13.4939 50.0182 13.4939H46.6388V19.5794H50.0182Z" fill="#81818B"/>
<path d="M63.2451 16.0233C63.7223 15.3722 64.3628 14.8796 65.1645 14.5458C65.984 14.2118 66.9222 14.0449 67.9806 14.0449V17.6511C67.5369 17.6177 67.2382 17.601 67.0844 17.601C65.9409 17.601 65.0453 17.9183 64.3969 18.5527C63.748 19.1703 63.4236 20.1053 63.4236 21.3574V27.7186H59.4304V14.2453H63.2451V16.0233Z" fill="#81818B"/>
<path d="M75.5038 27.9186C74.0533 27.9186 72.7476 27.6268 71.5873 27.0422C70.4439 26.4414 69.5477 25.6146 68.8993 24.5628C68.251 23.5111 67.9265 22.3173 67.9265 20.9818C67.9265 19.6462 68.251 18.4525 68.8993 17.4006C69.5477 16.3488 70.4439 15.5308 71.5873 14.9465C72.7476 14.3454 74.0533 14.0449 75.5038 14.0449C76.9544 14.0449 78.2517 14.3454 79.3951 14.9465C80.5386 15.5308 81.4348 16.3488 82.0837 17.4006C82.7315 18.4525 83.056 19.6462 83.056 20.9818C83.056 22.3173 82.7315 23.5111 82.0837 24.5628C81.4348 25.6146 80.5386 26.4414 79.3951 27.0422C78.2517 27.6268 76.9544 27.9186 75.5038 27.9186ZM75.5038 24.7131C76.5281 24.7131 77.3644 24.3796 78.0128 23.7115C78.6785 23.0271 79.0108 22.1173 79.0108 20.9818C79.0108 19.8466 78.6785 18.945 78.0128 18.2772C77.3644 17.5926 76.5281 17.2504 75.5038 17.2504C74.4801 17.2504 73.6354 17.5926 72.9697 18.2772C72.304 18.945 71.9711 19.8466 71.9711 20.9818C71.9711 22.1173 72.304 23.0271 72.9697 23.7115C73.6354 24.3796 74.4801 24.7131 75.5038 24.7131Z" fill="#81818B"/>
<path d="M101.163 10.1882V27.7186H97.7581L88.8231 17.0751V27.7186H84.7271V10.1882H88.1574L97.0666 20.8316V10.1882H101.163Z" fill="#81818B"/>
<path d="M109.396 14.0449C111.529 14.0449 113.168 14.5458 114.311 15.5475C115.455 16.5325 116.026 18.0268 116.026 20.0302V27.7186H112.289V26.0405C111.538 27.2927 110.139 27.9186 108.091 27.9186C107.032 27.9186 106.11 27.7436 105.325 27.3929C104.558 27.0422 103.969 26.5583 103.559 25.9403C103.15 25.3227 102.945 24.6213 102.945 23.8367C102.945 22.5846 103.423 21.5996 104.378 20.8817C105.351 20.1638 106.845 19.8048 108.859 19.8048H112.033C112.033 18.9533 111.769 18.3022 111.239 17.8514C110.71 17.384 109.917 17.1502 108.859 17.1502C108.125 17.1502 107.399 17.2671 106.683 17.5009C105.983 17.7179 105.385 18.0184 104.89 18.4024L103.457 15.6727C104.208 15.1551 105.103 14.7545 106.144 14.4706C107.203 14.1868 108.287 14.0449 109.396 14.0449ZM109.089 25.2894C109.772 25.2894 110.377 25.1391 110.906 24.8384C111.435 24.5211 111.811 24.0622 112.033 23.461V22.0839H109.294C107.655 22.0839 106.836 22.6096 106.836 23.6614C106.836 24.1624 107.032 24.5628 107.425 24.8635C107.834 25.1474 108.389 25.2894 109.089 25.2894Z" fill="#81818B"/>
<path d="M127.244 27.0672C126.852 27.3511 126.365 27.5682 125.785 27.7185C125.222 27.8517 124.624 27.9185 123.993 27.9185C122.355 27.9185 121.083 27.5098 120.179 26.6918C119.291 25.8734 118.847 24.6713 118.847 23.0855V17.5509H116.723V14.5457H118.847V11.265H122.841V14.5457H126.271V17.5509H122.841V23.0354C122.841 23.6028 122.986 24.0454 123.276 24.3627C123.583 24.663 124.01 24.8133 124.556 24.8133C125.188 24.8133 125.725 24.6463 126.169 24.3126L127.244 27.0672Z" fill="#81818B"/>
<path d="M142.082 14.2452V27.7186H138.293V26.1157C137.764 26.6998 137.132 27.1508 136.398 27.4681C135.664 27.7687 134.871 27.9186 134.017 27.9186C132.208 27.9186 130.775 27.4096 129.716 26.3912C128.658 25.3729 128.129 23.8618 128.129 21.8584V14.2452H132.123V21.2822C132.123 23.4526 133.053 24.5378 134.913 24.5378C135.869 24.5378 136.637 24.2375 137.218 23.6363C137.797 23.0188 138.088 22.109 138.088 20.9067V14.2452H142.082Z" fill="#81818B"/>
<path d="M148.316 16.0233C148.793 15.3722 149.434 14.8796 150.236 14.5458C151.055 14.2118 151.994 14.0449 153.052 14.0449V17.6511C152.608 17.6177 152.309 17.601 152.156 17.601C151.012 17.601 150.116 17.9183 149.468 18.5527C148.819 19.1703 148.495 20.1053 148.495 21.3574V27.7186H144.501V14.2453H148.316V16.0233Z" fill="#81818B"/>
<path d="M167.513 21.0321C167.513 21.0818 167.488 21.4325 167.436 22.0839H157.017C157.204 22.9186 157.648 23.5779 158.348 24.0622C159.048 24.5461 159.918 24.7883 160.959 24.7883C161.676 24.7883 162.307 24.6881 162.853 24.4877C163.417 24.271 163.937 23.937 164.415 23.486L166.54 25.7399C165.243 27.1925 163.348 27.9186 160.856 27.9186C159.304 27.9186 157.93 27.6268 156.735 27.0422C155.54 26.4414 154.619 25.6146 153.97 24.5628C153.321 23.5111 152.997 22.3173 152.997 20.9818C152.997 19.6629 153.313 18.4775 153.945 17.4257C154.593 16.3572 155.472 15.5308 156.581 14.9465C157.708 14.3454 158.962 14.0449 160.345 14.0449C161.693 14.0449 162.913 14.3287 164.006 14.8963C165.098 15.464 165.951 16.2821 166.566 17.3506C167.197 18.4024 167.513 19.6295 167.513 21.0321ZM160.37 17C159.466 17 158.706 17.2504 158.092 17.7513C157.477 18.2522 157.102 18.9367 156.965 19.8048H163.75C163.613 18.9533 163.237 18.2771 162.623 17.7763C162.009 17.2587 161.258 17 160.37 17Z" fill="#81818B"/>
<path fill-rule="evenodd" clip-rule="evenodd" d="M19.748 0.425507C19.1395 0.0811462 18.3893 0.0811462 17.7808 0.425507C13.4588 2.87123 10.5437 7.44723 10.5437 12.6916C10.5437 13.439 10.603 14.1729 10.717 14.889C7.74179 13.9005 4.52028 14.2602 1.88898 15.7434C1.27993 16.0868 0.904766 16.7223 0.905396 17.41C0.908494 21.0379 2.83503 24.5737 6.28533 26.5223C7.97804 27.4785 9.82557 27.9327 11.6479 27.9336C11.3707 28.7023 11.2198 29.529 11.2198 30.3903C11.2198 34.4664 14.5976 37.7702 18.7641 37.7702C22.9309 37.7702 26.3084 34.4664 26.3084 30.3903C26.3084 29.5269 26.1568 28.6985 25.8785 27.9286C27.5923 27.8755 29.3184 27.4204 30.9079 26.5223C34.3586 24.5737 36.2848 21.0379 36.2874 17.4101C36.2885 16.7225 35.9131 16.0869 35.3041 15.7436C32.7767 14.3188 29.7042 13.9307 26.8291 14.7786C26.932 14.0975 26.9849 13.4007 26.9849 12.6916C26.9849 7.44723 24.0701 2.87123 19.748 0.425507ZM14.4724 12.6916C14.4724 9.28605 16.1581 6.26385 18.7644 4.38265C21.3707 6.26385 23.0564 9.28605 23.0564 12.6916C23.0564 16.0971 21.3707 19.1193 18.7644 21.0004C16.1581 19.1193 14.4724 16.0971 14.4724 12.6916ZM26.5115 19.0735C28.3256 18.0489 30.4217 17.9298 32.2528 18.578C31.9115 20.4534 30.7576 22.1695 28.9436 23.1941C27.1296 24.2187 25.0334 24.3377 23.2024 23.6897C23.5438 21.8141 24.6975 20.0981 26.5115 19.0735ZM4.94049 18.5779C6.77148 17.9296 8.8676 18.0488 10.6816 19.0734C12.4958 20.0979 13.6493 21.8141 13.9909 23.6893C12.1598 24.3377 10.0638 24.2187 8.24967 23.1941C6.43564 22.1695 5.28206 20.4533 4.94049 18.5779ZM15.1485 30.3903C15.1485 28.4371 16.7673 26.8534 18.7641 26.8534C20.7609 26.8534 22.3798 28.4371 22.3798 30.3903C22.3798 32.3436 20.7609 33.9273 18.7641 33.9273C16.7673 33.9273 15.1485 32.3436 15.1485 30.3903Z" fill="#81818B"/>
</svg>
